# xmcd
#
# Track frame offsets: 
#        150
#        21585
#        39002
#        55374
#        68392
#        90610
#        105960
#        124841
#        139338
#        156681
#        178267
#        189270
#        202462
#        213880
#        229676
#        250318
#
# Disc length: 3546 seconds
#
# Revision: 0
# Processed by: cddbd v1.4b42PL0 Copyright (c) Steve Scherf et al.
# Submitted via: ExactAudioCopy v0.90a11
#
DISCID=e60dd810
DTITLE=Mark Jungers - Black Limousine
DYEAR=1900
DGENRE=
TTITLE0=Black Limousine
TTITLE1=Think About You
TTITLE2=Lonesome Fool
TTITLE3=South Fork Crow River
TTITLE4=You and The Wind
TTITLE5=Too Tired to Cry
TTITLE6=Jesse James
TTITLE7=Freightliner
TTITLE8=I Will Be Free
TTITLE9=Ballad of Mr. Underwood
TTITLE10=What More Can I Do
TTITLE11=Talking Dream Blues
TTITLE12=Nice Long Ride
TTITLE13=Treat You Right
TTITLE14=Long Train
TTITLE15=Broken Watch
EXTD=
EXTT0=
EXTT1=
EXTT2=
EXTT3=
EXTT4=
EXTT5=
EXTT6=
EXTT7=
EXTT8=
EXTT9=
EXTT10=
EXTT11=
EXTT12=
EXTT13=
EXTT14=
EXTT15=
PLAYORDER=
